<?xml version="1.0" encoding="UTF-8" standalone="no"?>
<!-- Created with Inkscape (http://www.inkscape.org/) -->

<svg
   width="1000.0001"
   height="1000.0001"
   viewBox="0 0 264.58333 264.58333"
   version="1.1"
   id="svg5"
   xmlns="http://www.w3.org/2000/svg"
   xmlns:svg="http://www.w3.org/2000/svg">
  <defs
     id="defs2" />
  <g
     id="layer1">
    <path
       style="font-variation-settings:normal;opacity:1;vector-effect:none;fill:#ff0000;fill-opacity:1;stroke-width:0.617552;stroke-linecap:butt;stroke-linejoin:miter;stroke-miterlimit:4;stroke-dasharray:none;stroke-dashoffset:0;stroke-opacity:1;-inkscape-stroke:none;stop-color:#000000;stop-opacity:1"
       d="m 263.61648,154.22893 c -4.2538,26.35653 -12.12717,48.51636 -25.79175,72.59171 -4.68663,8.25728 -15.68509,24.75489 -21.56554,32.34812 l -4.19322,5.41457 -103.96874,-65.11664 C 50.914423,163.65253 3.1995826,133.75201 2.0642461,133.0211 L 0,131.69215 69.416744,88.263056 C 206.1899,2.6938784 211.71047,-0.70136793 212.80216,0.07842487 214.13367,1.0295089 226.43941,18.170216 231.27498,25.809238 c 9.11496,14.399446 16.13233,28.276159 21.64699,42.806568 4.49239,11.836764 7.08665,20.973027 9.52144,33.531814 1.84875,9.53586 1.86927,9.80851 2.06712,27.46754 0.1783,15.91983 0.082,18.56425 -0.894,24.61377 z"
       id="path633" />
  </g>
</svg>
